<?xml version="1.0" standalone="no"?>
<!DOCTYPE svg PUBLIC "-//W3C//DTD SVG 20010904//EN"
 "http://www.w3.org/TR/2001/REC-SVG-20010904/DTD/svg10.dtd">
<svg version="1.0" xmlns="http://www.w3.org/2000/svg"
 width="470.000000pt" height="470.000000pt" viewBox="0 0 470.000000 470.000000"
 preserveAspectRatio="xMidYMid meet">
<metadata>
Created by potrace 1.11, written by Peter Selinger 2001-2013
</metadata>
<g transform="translate(0.000000,470.000000) scale(0.100000,-0.100000)"
fill="#000000" stroke="none">
<path d="M3330 3439 c-226 -24 -398 -81 -573 -193 -234 -150 -431 -403 -490
-629 -8 -31 -13 -58 -10 -61 13 -12 35 11 64 67 54 106 130 208 234 312 108
109 221 189 355 255 453 219 988 140 1355 -201 74 -68 76 -69 129 -69 30 0 57
4 61 9 7 12 -97 142 -166 207 -153 142 -367 250 -559 280 -19 3 -37 7 -40 9
-22 13 -270 23 -360 14z"/>
<path d="M1140 2972 c-55 -17 -68 -86 -24 -121 15 -12 34 -21 44 -21 10 0 29
9 44 21 59 46 8 143 -64 121z"/>
<path d="M4335 2840 c-10 -16 -4 -595 7 -642 23 -103 72 -152 164 -164 57 -7
152 15 178 41 13 14 13 19 -1 53 -20 48 -16 46 -52 28 -64 -33 -142 -8 -162
52 -15 47 -19 330 -5 341 6 4 54 7 106 6 52 -1 100 0 105 2 6 2 10 27 10 56
l0 52 -50 2 c-28 1 -79 2 -115 2 l-66 1 1 78 c1 42 -1 83 -3 90 -5 15 -108 17
-117 2z"/>
<path d="M250 2674 c-47 -14 -120 -55 -120 -68 0 -5 -3 -6 -7 -2 -5 4 -8 20
-8 34 0 26 -2 27 -55 27 l-55 0 0 -315 0 -314 53 -2 c28 0 53 2 53 5 1 3 2
108 3 232 2 250 0 246 68 280 77 39 168 28 203 -25 14 -21 17 -58 17 -255 0
-127 3 -232 6 -232 20 -4 98 -5 107 -2 6 2 10 88 11 228 1 220 1 226 23 249
54 57 159 77 213 42 42 -28 48 -63 48 -296 0 -165 3 -219 13 -223 6 -2 35 -4
62 -3 l50 1 -1 255 c-1 240 -2 257 -22 297 -34 66 -84 94 -170 95 -70 0 -125
-18 -178 -58 l-47 -36 -24 30 c-42 54 -158 81 -243 56z"/>
<path d="M2767 2679 c-93 -21 -168 -84 -215 -178 -24 -49 -27 -67 -26 -146 1
-104 20 -158 79 -223 58 -65 131 -96 236 -99 105 -3 162 15 222 67 l40 36 -24
37 c-27 41 -40 45 -60 20 -22 -26 -97 -55 -143 -55 -145 0 -242 102 -231 241
6 80 55 148 130 182 57 26 151 19 209 -15 25 -14 47 -26 49 -26 2 0 16 18 31
40 l26 39 -26 25 c-51 46 -206 75 -297 55z"/>
<path d="M3346 2670 c-89 -22 -101 -35 -85 -89 7 -22 14 -41 16 -41 2 0 20 7
40 15 68 29 139 34 196 16 41 -14 62 -51 73 -128 l7 -53 -34 17 c-45 23 -166
27 -221 7 -93 -32 -141 -98 -139 -186 2 -124 83 -200 206 -192 60 3 99 17 142
50 l33 25 1 -23 c3 -53 2 -53 51 -53 26 -1 49 4 51 10 2 5 3 118 2 250 -2 256
-7 281 -56 334 -50 54 -166 71 -283 41z m197 -357 c33 -14 37 -20 37 -52 0
-46 -21 -76 -70 -101 -64 -33 -144 -24 -177 19 -15 20 -17 76 -2 103 27 50
131 66 212 31z"/>
<path d="M4099 2677 c-19 -4 -52 -22 -73 -40 -26 -20 -37 -25 -33 -14 13 33
-3 47 -53 47 -38 0 -50 -4 -54 -17 -3 -10 -5 -152 -4 -315 0 -216 3 -298 12
-300 31 -4 96 -3 97 2 1 3 2 104 3 226 1 191 4 224 19 247 35 54 92 72 172 53
29 -7 31 -5 48 40 11 32 14 51 7 58 -15 15 -102 23 -141 13z"/>
<path d="M1097 2663 c-10 -9 -9 -623 1 -624 23 -5 112 -4 113 1 4 15 5 607 1
618 -4 13 -103 18 -115 5z"/>
<path d="M1386 2662 c-3 -5 42 -75 99 -155 58 -80 105 -148 105 -151 0 -3 -49
-72 -110 -153 -60 -82 -110 -153 -110 -159 0 -6 23 -10 60 -10 l60 2 86 114
c47 63 89 119 93 123 5 5 49 -47 99 -115 l91 -124 60 1 c33 1 63 3 66 6 2 3
-47 77 -110 164 l-115 158 23 31 c97 127 187 256 187 265 0 7 -22 11 -59 11
l-59 0 -71 -97 c-39 -54 -78 -107 -87 -118 l-16 -20 -14 20 c-7 11 -44 63 -82
115 l-68 95 -61 3 c-34 2 -64 -1 -67 -6z"/>
<path d="M2194 2464 c-58 -28 -81 -103 -49 -164 30 -59 119 -79 170 -38 74 58
63 169 -20 204 -43 18 -62 17 -101 -2z"/>
<path d="M2224 2172 c-6 -4 -22 -27 -34 -52 -136 -270 -426 -536 -702 -644
-91 -36 -188 -61 -288 -75 -69 -10 -308 -7 -350 4 -14 3 -36 8 -50 11 -86 17
-228 76 -314 133 -129 83 -253 215 -326 344 l-32 58 -60 -2 c-58 -2 -59 -3
-53 -28 9 -41 83 -180 130 -246 156 -219 407 -367 687 -405 345 -48 670 31
948 228 89 63 246 223 301 307 110 166 203 405 143 367z"/>
</g>
</svg>
